# xmcd
# 
# Track frame offsets:
#     150
#     17598
#     36270
# 
# Disc length: 732
# 
# Revision: 2
# Processed by: cddbd v1.5.2PL0 Copyright (c) Steve Scherf et al.
# Submitted via: BonkEnc v1.0.6
# 
DISCID=1a02da03
DTITLE=NEWS - weeeek　：　通常盤
DYEAR=0
DGENRE=J-Pop
TTITLE0=weeeek
TTITLE1=with me
TTITLE2=Rainbow
EXTD=
EXTT0=
EXTT1=
EXTT2=
PLAYORDER=
